<svg width="242" height="362" viewBox="0 0 242 362" fill="none" xmlns="http://www.w3.org/2000/svg">
<path d="M201 1H41C18.9086 1 1 18.9086 1 41V321C1 343.091 18.9086 361 41 361H201C223.091 361 241 343.091 241 321V41C241 18.9086 223.091 1 201 1Z" fill="white" stroke="black" stroke-width="2"/>
<path d="M201 21H41C29.9543 21 21 29.9543 21 41V321C21 332.046 29.9543 341 41 341H201C212.046 341 221 332.046 221 321V41C221 29.9543 212.046 21 201 21Z" fill="#5555FF"/>
<path fill-rule="evenodd" clip-rule="evenodd" d="M181 81C92.636 81 21 152.636 21 241C21 263.092 38.908 281 61 281C149.364 281 221 209.368 221 121C221 98.908 203.092 81 181 81Z" fill="white"/>
<path d="M117 121C94.84 121 77 138.84 77 161V165H97V161C97 149.92 105.92 141 117 141C128.08 141 137 149.92 137 161C137 165.512 133.256 174.36 129.352 177.44C108.132 194.136 108.352 191.38 77 213V241H157V213H137V221H101C125.76 203.564 127.572 203.988 146.972 186.624C153.188 181.064 157 170.024 157 161C157 138.84 139.16 121 117 121Z" fill="#5555FF"/>
<path d="M51 31C39.92 31 31 39.92 31 51V53H41V51C41 45.46 45.46 41 51 41C56.54 41 61 45.46 61 51C61 53.256 59.128 57.68 57.176 59.22C46.564 67.568 46.676 66.188 31 77V91H71V77H61V81H43C55.38 72.28 56.284 72.496 65.988 63.812C69.096 61.032 71 55.512 71 51C71 39.92 62.08 31 51 31ZM191 331C202.08 331 211 322.08 211 311V309H201V311C201 316.54 196.54 321 191 321C189.686 321.003 188.384 320.746 187.17 320.244C185.956 319.743 184.852 319.006 183.923 318.077C182.994 317.148 182.257 316.044 181.756 314.83C181.254 313.616 180.997 312.314 181 311C181 308.744 182.872 304.32 184.824 302.784C195.436 294.432 195.324 295.812 211 285V271H171V285H181V281H199C186.62 289.72 185.716 289.508 176.012 298.188C172.904 300.968 171 306.492 171 311C171 322.08 179.92 331 191 331Z" fill="white"/>
</svg>
