<svg width="242" height="362" viewBox="0 0 242 362" fill="none" xmlns="http://www.w3.org/2000/svg">
<path d="M201 1H41C18.9086 1 1 18.9086 1 41V321C1 343.091 18.9086 361 41 361H201C223.091 361 241 343.091 241 321V41C241 18.9086 223.091 1 201 1Z" fill="white" stroke="black" stroke-width="2"/>
<path d="M201 21H41C29.9543 21 21 29.9543 21 41V321C21 332.046 29.9543 341 41 341H201C212.046 341 221 332.046 221 321V41C221 29.9543 212.046 21 201 21Z" fill="#5555FF"/>
<path fill-rule="evenodd" clip-rule="evenodd" d="M181 81C92.636 81 21 152.636 21 241C21 263.092 38.908 281 61 281C149.364 281 221 209.368 221 121C221 98.908 203.092 81 181 81Z" fill="white"/>
<path d="M121 121C113.044 121 105.413 124.161 99.7867 129.787C94.1607 135.413 91 143.044 91 151C91 157.796 93.32 163.972 97.124 169C87.352 176.28 81 187.824 81 201C81 223.16 98.84 241 121 241C143.16 241 161 223.16 161 201C161 187.824 154.648 176.28 144.876 169C148.839 163.835 150.991 157.51 151 151C151 143.044 147.839 135.413 142.213 129.787C136.587 124.161 128.956 121 121 121ZM121 141C123.652 141 126.196 142.054 128.071 143.929C129.946 145.804 131 148.348 131 151C131 153.652 129.946 156.196 128.071 158.071C126.196 159.946 123.652 161 121 161C118.348 161 115.804 159.946 113.929 158.071C112.054 156.196 111 153.652 111 151C111 148.348 112.054 145.804 113.929 143.929C115.804 142.054 118.348 141 121 141ZM119 181C119.672 180.932 120.308 181 121 181C132.08 181 141 189.92 141 201C141 212.08 132.08 221 121 221C109.92 221 101 212.08 101 201C101 190.612 108.892 182.02 119 181Z" fill="#5555FF"/>
<path d="M51 31C47.0218 31 43.2065 32.5804 40.3934 35.3934C37.5804 38.2065 36 42.0218 36 46C36 49.4 37.16 52.484 39.064 55C36.5606 56.849 34.5267 59.2603 33.126 62.0394C31.7253 64.8186 30.9971 67.8878 31 71C31 82.08 39.92 91 51 91C62.08 91 71 82.08 71 71C71 64.412 67.824 58.64 62.936 55C64.84 52.484 66 49.4 66 46C66 42.0218 64.4196 38.2065 61.6066 35.3934C58.7935 32.5804 54.9783 31 51 31ZM51 41C52.3261 41 53.5979 41.5268 54.5355 42.4645C55.4732 43.4022 56 44.6739 56 46C56 47.3261 55.4732 48.5978 54.5355 49.5355C53.5979 50.4732 52.3261 51 51 51C49.6739 51 48.4022 50.4732 47.4645 49.5355C46.5268 48.5978 46 47.3261 46 46C46 44.6739 46.5268 43.4022 47.4645 42.4645C48.4022 41.5268 49.6739 41 51 41ZM50 61C50.336 60.964 50.652 61 51 61C56.54 61 61 65.46 61 71C61 76.54 56.54 81 51 81C49.6861 81.0026 48.3845 80.7458 47.1701 80.2441C45.9556 79.7425 44.8522 79.006 43.9231 78.0769C42.994 77.1478 42.2575 76.0444 41.7559 74.83C41.2543 73.6155 40.9974 72.314 41 71C41 65.808 44.944 61.512 50 61ZM191 331C187.022 331 183.206 329.42 180.393 326.607C177.58 323.794 176 319.978 176 316C176 312.6 177.16 309.516 179.064 307C176.561 305.151 174.527 302.74 173.126 299.961C171.725 297.181 170.997 294.112 171 291C171 279.92 179.92 271 191 271C202.08 271 211 279.92 211 291C211 297.588 207.824 303.36 202.936 307C204.84 309.516 206 312.6 206 316C206 319.978 204.42 323.794 201.607 326.607C198.794 329.42 194.978 331 191 331ZM191 321C192.326 321 193.598 320.473 194.536 319.536C195.473 318.598 196 317.326 196 316C196 314.674 195.473 313.402 194.536 312.464C193.598 311.527 192.326 311 191 311C189.674 311 188.402 311.527 187.464 312.464C186.527 313.402 186 314.674 186 316C186 317.326 186.527 318.598 187.464 319.536C188.402 320.473 189.674 321 191 321ZM190 301C190.336 301.04 190.652 301 191 301C196.54 301 201 296.54 201 291C201 285.46 196.54 281 191 281C189.686 280.997 188.385 281.254 187.17 281.756C185.956 282.257 184.852 282.994 183.923 283.923C182.994 284.852 182.257 285.956 181.756 287.17C181.254 288.384 180.997 289.686 181 291C180.997 293.485 181.915 295.883 183.577 297.73C185.24 299.578 187.528 300.743 190 301Z" fill="white"/>
</svg>
