<svg width="242" height="362" viewBox="0 0 242 362" fill="none" xmlns="http://www.w3.org/2000/svg">
<path d="M201 1H41C18.9086 1 1 18.9086 1 41V321C1 343.091 18.9086 361 41 361H201C223.091 361 241 343.091 241 321V41C241 18.9086 223.091 1 201 1Z" fill="white" stroke="black" stroke-width="2"/>
<path d="M201 21H41C29.9543 21 21 29.9543 21 41V321C21 332.046 29.9543 341 41 341H201C212.046 341 221 332.046 221 321V41C221 29.9543 212.046 21 201 21Z" fill="#55AA55"/>
<path d="M181 81C92.636 81 21 152.636 21 241C21 263.092 38.908 281 61 281C149.364 281 221 209.368 221 121C221 98.908 203.092 81 181 81Z" fill="white"/>
<path d="M121 121C98.908 121 81 138.908 81 161C81 183.092 98.908 201 121 201C128.268 201 135.128 199.012 141 195.624V201C141 206.304 138.893 211.391 135.142 215.142C131.391 218.893 126.304 221 121 221C113.184 221 106.54 216.412 103.248 209.876L85.248 218.876C88.5551 225.528 93.6545 231.124 99.9714 235.033C106.288 238.942 113.571 241.008 121 241C143.092 241 161 223.092 161 201V161C161 138.908 143.092 121 121 121ZM121 141C126.304 141 131.391 143.107 135.142 146.858C138.893 150.609 141 155.696 141 161C141 166.304 138.893 171.391 135.142 175.142C131.391 178.893 126.304 181 121 181C115.696 181 110.609 178.893 106.858 175.142C103.107 171.391 101 166.304 101 161C101 155.696 103.107 150.609 106.858 146.858C110.609 143.107 115.696 141 121 141ZM101 245V253H141V245H101Z" fill="#55AA55"/>
<path d="M51.0001 90.9999C56.3044 90.9999 61.3914 88.8928 65.1421 85.142C68.8929 81.3913 71.0001 76.3043 71.0001 70.9999V50.9999C71.0019 46.5969 69.5507 42.3163 66.8716 38.8221C64.1925 35.3279 60.4353 32.8156 56.1827 31.6746C51.93 30.5337 47.4197 30.8279 43.3514 32.5118C39.283 34.1957 35.884 37.1751 33.6817 40.9877C31.4794 44.8004 30.5967 49.2334 31.1707 53.5988C31.7447 57.9643 33.7434 62.0183 36.8565 65.132C39.9696 68.2458 44.0231 70.2452 48.3885 70.8201C52.7538 71.3951 57.1869 70.5135 61.0001 68.312V70.9999C61.0001 73.6521 59.9465 76.1956 58.0711 78.071C56.1957 79.9464 53.6522 80.9999 51.0001 80.9999C47.0921 80.9999 43.7681 78.7079 42.1241 75.4399L33.1241 79.9399C34.7777 83.2656 37.3274 86.0632 40.4859 88.0174C43.6444 89.9716 47.2859 91.0046 51.0001 90.9999ZM51.0001 60.9999C48.3479 60.9999 45.8044 59.9464 43.929 58.071C42.0536 56.1956 41.0001 53.6521 41.0001 50.9999C41.0001 48.3478 42.0536 45.8043 43.929 43.9289C45.8044 42.0535 48.3479 40.9999 51.0001 40.9999C53.6522 40.9999 56.1957 42.0535 58.0711 43.9289C59.9465 45.8043 61.0001 48.3478 61.0001 50.9999C61.0001 53.6521 59.9465 56.1956 58.0711 58.071C56.1957 59.9464 53.6522 60.9999 51.0001 60.9999ZM191 271C185.696 271 180.609 273.107 176.858 276.858C173.107 280.609 171 285.696 171 291V311C170.998 315.403 172.449 319.684 175.128 323.178C177.808 326.672 181.565 329.184 185.817 330.325C190.07 331.466 194.58 331.172 198.649 329.488C202.717 327.804 206.116 324.825 208.318 321.012C210.521 317.199 211.403 312.767 210.829 308.401C210.255 304.036 208.257 299.982 205.144 296.868C202.031 293.754 197.977 291.755 193.612 291.18C189.246 290.605 184.813 291.486 181 293.688V291C181 288.348 182.054 285.804 183.929 283.929C185.804 282.054 188.348 281 191 281C194.908 281 198.232 283.296 199.876 286.56L208.876 282.064C207.223 278.737 204.673 275.939 201.515 273.984C198.356 272.029 194.715 270.996 191 271ZM191 301C193.652 301 196.196 302.054 198.071 303.929C199.946 305.804 201 308.348 201 311C201 313.652 199.946 316.196 198.071 318.071C196.196 319.946 193.652 321 191 321C188.348 321 185.804 319.946 183.929 318.071C182.054 316.196 181 313.652 181 311C181 308.348 182.054 305.804 183.929 303.929C185.804 302.054 188.348 301 191 301Z" fill="white"/>
</svg>
