<svg width="242" height="362" viewBox="0 0 242 362" fill="none" xmlns="http://www.w3.org/2000/svg">
<path d="M201 1H41C18.9086 1 1 18.9086 1 41V321C1 343.091 18.9086 361 41 361H201C223.091 361 241 343.091 241 321V41C241 18.9086 223.091 1 201 1Z" fill="white" stroke="black" stroke-width="2"/>
<path d="M201 21H41C29.9543 21 21 29.9543 21 41V321C21 332.046 29.9543 341 41 341H201C212.046 341 221 332.046 221 321V41C221 29.9543 212.046 21 201 21Z" fill="#55AA55"/>
<path d="M181 81C92.636 81 21 152.636 21 241C21 263.092 38.908 281 61 281C149.364 281 221 209.368 221 121C221 98.908 203.092 81 181 81Z" fill="white"/>
<path d="M87 121V161H107V141H147L107 241H127L167 141V121H87Z" fill="#55AA55"/>
<path d="M31 31V51H41V41H61L41 91H51L71 41V31H31ZM211 331V311H201V321H181L201 271H191L171 321V331H211Z" fill="white"/>
</svg>
