<svg width="241" height="363" viewBox="0 0 241 363" fill="none" xmlns="http://www.w3.org/2000/svg">
<path d="M201.192 1.38354H41.1917C19.1003 1.38354 1.19165 19.2922 1.19165 41.3835V321.384C1.19165 343.475 19.1003 361.384 41.1917 361.384H201.192C223.283 361.384 241.192 343.475 241.192 321.384V41.3835C241.192 19.2922 223.283 1.38354 201.192 1.38354Z" fill="white" stroke="black" stroke-width="2"/>
<path d="M201.192 21.3835H41.1918C30.1461 21.3835 21.1918 30.3378 21.1918 41.3835V321.384C21.1918 332.429 30.1461 341.384 41.1918 341.384H201.192C212.237 341.384 221.192 332.429 221.192 321.384V41.3835C221.192 30.3378 212.237 21.3835 201.192 21.3835Z" fill="black"/>
<path fill-rule="evenodd" clip-rule="evenodd" d="M181.192 81.3835C92.8258 81.3835 21.1918 153.019 21.1918 241.384C21.1918 263.476 39.1008 281.384 61.1918 281.384C149.558 281.384 221.192 209.75 221.192 121.384C221.192 99.2925 203.283 81.3835 181.192 81.3835Z" fill="white"/>
<path fill-rule="evenodd" clip-rule="evenodd" d="M32.9418 181.384C25.4288 199.926 21.1918 220.148 21.1918 241.384C21.1918 263.476 39.1008 281.384 61.1918 281.384L121.192 181.384H32.9418Z" fill="#FFAA00"/>
<path fill-rule="evenodd" clip-rule="evenodd" d="M121.192 181.384L61.1918 281.384C128.321 281.384 185.694 239.994 209.442 181.384H121.192Z" fill="#00AA00"/>
<path fill-rule="evenodd" clip-rule="evenodd" d="M181.192 81.3835C114.063 81.3835 56.6898 122.774 32.9418 181.384H121.192L181.192 81.3835Z" fill="#FF5555"/>
<path fill-rule="evenodd" clip-rule="evenodd" d="M181.192 81.3835L121.192 181.384H209.442C216.955 162.842 221.192 142.621 221.192 121.384C221.192 99.2925 203.283 81.3835 181.192 81.3835Z" fill="#5555FF"/>
<path fill-rule="evenodd" clip-rule="evenodd" d="M34.1298 56.3835C32.1915 61.1471 31.1938 66.2408 31.1918 71.3835C31.1918 76.9065 35.6688 81.3835 41.1918 81.3835L56.1918 56.3835H34.1288H34.1298Z" fill="#FFAA00"/>
<path fill-rule="evenodd" clip-rule="evenodd" d="M56.1918 56.3835L41.1918 81.3835C57.9738 81.3835 72.3178 71.0365 78.2548 56.3835H56.1918Z" fill="#00AA00"/>
<path fill-rule="evenodd" clip-rule="evenodd" d="M71.1918 31.3835C54.4098 31.3835 40.0658 41.7305 34.1288 56.3835H56.1918L71.1918 31.3835Z" fill="#FF5555"/>
<path fill-rule="evenodd" clip-rule="evenodd" d="M71.1918 31.3835L56.1918 56.3835H78.2548C80.1927 51.62 81.1901 46.5262 81.1918 41.3835C81.1918 35.8605 76.7148 31.3835 71.1918 31.3835Z" fill="#5555FF"/>
<path fill-rule="evenodd" clip-rule="evenodd" d="M164.13 306.384C162.191 311.147 161.194 316.241 161.192 321.384C161.192 326.907 165.669 331.384 171.192 331.384L186.192 306.384H164.129H164.13Z" fill="#FFAA00"/>
<path fill-rule="evenodd" clip-rule="evenodd" d="M186.192 306.384L171.192 331.384C187.974 331.384 202.318 321.037 208.255 306.384H186.192Z" fill="#00AA00"/>
<path fill-rule="evenodd" clip-rule="evenodd" d="M201.192 281.384C184.41 281.384 170.066 291.731 164.129 306.384H186.192L201.192 281.384Z" fill="#FF5555"/>
<path fill-rule="evenodd" clip-rule="evenodd" d="M201.192 281.384L186.192 306.384H208.255C210.193 301.62 211.19 296.526 211.192 291.384C211.192 285.861 206.715 281.384 201.192 281.384Z" fill="#5555FF"/>
<path d="M181.192 81.3835C114.063 81.3835 56.6898 122.774 32.9418 181.384C25.4288 199.926 21.1918 220.147 21.1918 241.384C21.1918 263.476 39.1008 281.384 61.1918 281.384C128.321 281.384 185.694 239.994 209.442 181.384C216.955 162.842 221.192 142.621 221.192 121.384C221.192 99.2925 203.283 81.3835 181.192 81.3835ZM71.1918 31.3835C54.4098 31.3835 40.0658 41.7305 34.1288 56.3835C32.1908 61.1471 31.1935 66.2408 31.1918 71.3835C31.1918 76.9065 35.6688 81.3835 41.1918 81.3835C57.9738 81.3835 72.3178 71.0365 78.2548 56.3835C80.1927 51.62 81.1901 46.5262 81.1918 41.3835C81.1918 35.8605 76.7148 31.3835 71.1918 31.3835ZM201.192 281.384C184.41 281.384 170.066 291.731 164.129 306.384C162.191 311.147 161.193 316.241 161.192 321.384C161.192 326.907 165.669 331.384 171.192 331.384C187.974 331.384 202.318 321.037 208.255 306.384C210.193 301.62 211.19 296.526 211.192 291.384C211.192 285.861 206.715 281.384 201.192 281.384Z" stroke="white" stroke-width="4"/>
</svg>
