<svg width="240" height="360" viewBox="0 0 240 360" fill="none" xmlns="http://www.w3.org/2000/svg">
<mask id="mask0_1_242" style="mask-type:luminance" maskUnits="userSpaceOnUse" x="0" y="0" width="240" height="360">
<path d="M200 0H40C17.9086 0 0 17.9086 0 40V320C0 342.091 17.9086 360 40 360H200C222.091 360 240 342.091 240 320V40C240 17.9086 222.091 0 200 0Z" fill="white"/>
<path d="M200 20H40C28.9543 20 20 28.9543 20 40V320C20 331.046 28.9543 340 40 340H200C211.046 340 220 331.046 220 320V40C220 28.9543 211.046 20 200 20Z" fill="white"/>
<path d="M180 80C91.636 80 20 151.636 20 240C20 262.092 37.908 280 60 280C148.364 280 220 208.368 220 120C220 97.908 202.092 80 180 80Z" fill="white"/>
<path d="M120 120C97.908 120 80 137.908 80 160V200C80 222.092 97.908 240 120 240C142.092 240 160 222.092 160 200V160C160 137.908 142.092 120 120 120ZM120 140C125.304 140 130.391 142.107 134.142 145.858C137.893 149.609 140 154.696 140 160V200C140 205.304 137.893 210.391 134.142 214.142C130.391 217.893 125.304 220 120 220C114.696 220 109.609 217.893 105.858 214.142C102.107 210.391 100 205.304 100 200V160C100 154.696 102.107 149.609 105.858 145.858C109.609 142.107 114.696 140 120 140Z" fill="white"/>
<path d="M50 30C44.6957 30 39.6086 32.1072 35.8579 35.8579C32.1071 39.6086 30 44.6957 30 50V70C30 75.3043 32.1071 80.3914 35.8579 84.1421C39.6086 87.8928 44.6957 90 50 90C55.3043 90 60.3914 87.8928 64.1421 84.1421C67.8929 80.3914 70 75.3043 70 70V50C70 44.6957 67.8929 39.6086 64.1421 35.8579C60.3914 32.1072 55.3043 30 50 30ZM50 40C52.6522 40 55.1957 41.0536 57.0711 42.929C58.9464 44.8043 60 47.3478 60 50V70C60 72.6522 58.9464 75.1957 57.0711 77.071C55.1957 78.9464 52.6522 80 50 80C47.3478 80 44.8043 78.9464 42.9289 77.071C41.0536 75.1957 40 72.6522 40 70V50C40 47.3478 41.0536 44.8043 42.9289 42.929C44.8043 41.0536 47.3478 40 50 40ZM190 270C184.696 270 179.609 272.107 175.858 275.858C172.107 279.609 170 284.696 170 290V310C170 315.304 172.107 320.391 175.858 324.142C179.609 327.893 184.696 330 190 330C195.304 330 200.391 327.893 204.142 324.142C207.893 320.391 210 315.304 210 310V290C210 284.696 207.893 279.609 204.142 275.858C200.391 272.107 195.304 270 190 270ZM190 280C192.652 280 195.196 281.054 197.071 282.929C198.946 284.804 200 287.348 200 290V310C200 312.652 198.946 315.196 197.071 317.071C195.196 318.946 192.652 320 190 320C187.348 320 184.804 318.946 182.929 317.071C181.054 315.196 180 312.652 180 310V290C180 287.348 181.054 284.804 182.929 282.929C184.804 281.054 187.348 280 190 280Z" fill="white"/>
</mask>
<g mask="url(#mask0_1_242)">
<path d="M200 0H40C17.9086 0 0 17.9086 0 40V320C0 342.091 17.9086 360 40 360H200C222.091 360 240 342.091 240 320V40C240 17.9086 222.091 0 200 0Z" fill="white" stroke="black" stroke-width="2"/>
<path d="M200 20H40C28.9543 20 20 28.9543 20 40V320C20 331.046 28.9543 340 40 340H200C211.046 340 220 331.046 220 320V40C220 28.9543 211.046 20 200 20Z" fill="#FFAA00"/>
<path d="M180 80C91.636 80 20 151.636 20 240C20 262.092 37.908 280 60 280C148.364 280 220 208.368 220 120C220 97.908 202.092 80 180 80Z" fill="white"/>
<path fill-rule="evenodd" clip-rule="evenodd" d="M120 120C97.908 120 80 137.908 80 160V200C80 222.092 97.908 240 120 240C142.092 240 160 222.092 160 200V160C160 137.908 142.092 120 120 120ZM120 140C125.304 140 130.391 142.107 134.142 145.858C137.893 149.609 140 154.696 140 160V200C140 205.304 137.893 210.391 134.142 214.142C130.391 217.893 125.304 220 120 220C114.696 220 109.609 217.893 105.858 214.142C102.107 210.391 100 205.304 100 200V160C100 154.696 102.107 149.609 105.858 145.858C109.609 142.107 114.696 140 120 140Z" fill="#FFAA00"/>
<path d="M50 30C44.6957 30 39.6086 32.1072 35.8579 35.8579C32.1071 39.6086 30 44.6957 30 50V70C30 75.3043 32.1071 80.3914 35.8579 84.1421C39.6086 87.8928 44.6957 90 50 90C55.3043 90 60.3914 87.8928 64.1421 84.1421C67.8929 80.3914 70 75.3043 70 70V50C70 44.6957 67.8929 39.6086 64.1421 35.8579C60.3914 32.1072 55.3043 30 50 30ZM50 40C52.6522 40 55.1957 41.0536 57.0711 42.929C58.9464 44.8043 60 47.3478 60 50V70C60 72.6522 58.9464 75.1957 57.0711 77.071C55.1957 78.9464 52.6522 80 50 80C47.3478 80 44.8043 78.9464 42.9289 77.071C41.0536 75.1957 40 72.6522 40 70V50C40 47.3478 41.0536 44.8043 42.9289 42.929C44.8043 41.0536 47.3478 40 50 40ZM190 270C184.696 270 179.609 272.107 175.858 275.858C172.107 279.609 170 284.696 170 290V310C170 315.304 172.107 320.391 175.858 324.142C179.609 327.893 184.696 330 190 330C195.304 330 200.391 327.893 204.142 324.142C207.893 320.391 210 315.304 210 310V290C210 284.696 207.893 279.609 204.142 275.858C200.391 272.107 195.304 270 190 270ZM190 280C192.652 280 195.196 281.054 197.071 282.929C198.946 284.804 200 287.348 200 290V310C200 312.652 198.946 315.196 197.071 317.071C195.196 318.946 192.652 320 190 320C187.348 320 184.804 318.946 182.929 317.071C181.054 315.196 180 312.652 180 310V290C180 287.348 181.054 284.804 182.929 282.929C184.804 281.054 187.348 280 190 280Z" fill="white"/>
</g>
</svg>
