<svg width="242" height="362" viewBox="0 0 242 362" fill="none" xmlns="http://www.w3.org/2000/svg">
<path d="M201 1H41C18.9086 1 1 18.9086 1 41V321C1 343.091 18.9086 361 41 361H201C223.091 361 241 343.091 241 321V41C241 18.9086 223.091 1 201 1Z" fill="white" stroke="black" stroke-width="2"/>
<path d="M201 21H41C29.9543 21 21 29.9543 21 41V321C21 332.046 29.9543 341 41 341H201C212.046 341 221 332.046 221 321V41C221 29.9543 212.046 21 201 21Z" fill="#55AA55"/>
<path fill-rule="evenodd" clip-rule="evenodd" d="M181 81C92.636 81 21 152.636 21 241C21 263.092 38.908 281 61 281C149.364 281 221 209.368 221 121C221 98.908 203.092 81 181 81Z" fill="white"/>
<path d="M85 121V181H125C136.08 181 145 189.92 145 201C145 212.08 136.08 221 125 221C113.92 221 105 212.08 105 201H85C85 223.16 102.84 241 125 241C147.16 241 165 223.16 165 201C165 178.84 147.16 161 125 161H105V141H161V121H105H85Z" fill="#55AA55"/>
<path d="M31 31V61H51C56.54 61 61 65.46 61 71C61 76.54 56.54 81 51 81C49.686 81.0026 48.3845 80.7458 47.17 80.2441C45.9556 79.7425 44.8522 79.006 43.9231 78.0769C42.994 77.1478 42.2575 76.0444 41.7559 74.83C41.2542 73.6155 40.9974 72.314 41 71H31C31 82.08 39.92 91 51 91C62.08 91 71 82.08 71 71C71 59.92 62.08 51 51 51H41V41H69V31H41H31ZM211 331V301H191C189.686 301.003 188.384 300.746 187.17 300.244C185.956 299.743 184.852 299.006 183.923 298.077C182.994 297.148 182.257 296.044 181.756 294.83C181.254 293.616 180.997 292.314 181 291C181 285.46 185.46 281 191 281C196.54 281 201 285.46 201 291H211C211 279.92 202.08 271 191 271C179.92 271 171 279.92 171 291C171 302.08 179.92 311 191 311H201V321H173V331H201H211Z" fill="white"/>
</svg>
