<svg width="242" height="362" viewBox="0 0 242 362" fill="none" xmlns="http://www.w3.org/2000/svg">
<path d="M201 0.999023H41C18.9086 0.999023 1 18.9076 1 40.999V320.999C1 343.09 18.9086 360.999 41 360.999H201C223.091 360.999 241 343.09 241 320.999V40.999C241 18.9076 223.091 0.999023 201 0.999023Z" fill="white" stroke="black" stroke-width="2"/>
<path d="M201 20.999H41C29.9543 20.999 21 29.9533 21 40.999V320.999C21 332.045 29.9543 340.999 41 340.999H201C212.046 340.999 221 332.045 221 320.999V40.999C221 29.9533 212.046 20.999 201 20.999Z" fill="#55AA55"/>
<path fill-rule="evenodd" clip-rule="evenodd" d="M181 80.999C92.636 80.999 21 152.635 21 240.999C21 263.091 38.908 280.999 61 280.999C149.364 280.999 221 209.367 221 120.999C221 98.907 203.092 80.999 181 80.999Z" fill="white"/>
<path d="M133.924 150.927H93.9238C88.401 150.927 82.7687 154.97 81.3438 159.957L60.7919 231.893C59.367 236.88 62.689 240.923 68.2119 240.923H108.212C113.735 240.923 119.367 236.88 120.792 231.893L141.344 159.957C142.769 154.97 139.447 150.927 133.924 150.927Z" fill="white" stroke="black" stroke-width="2.04"/>
<path d="M121.067 160.926H101.067C95.544 160.926 89.9118 164.969 88.4869 169.957L73.6487 221.893C72.2238 226.88 75.5459 230.924 81.0687 230.924H101.069C106.592 230.924 112.224 226.88 113.649 221.893L128.487 169.957C129.912 164.969 126.59 160.926 121.067 160.926Z" fill="#55AA55"/>
<path d="M173.923 120.928H133.923C128.4 120.928 122.768 124.971 121.343 129.958L100.791 201.894C99.366 206.881 102.688 210.924 108.211 210.924H148.211C153.734 210.924 159.366 206.881 160.791 201.894L181.343 129.958C182.768 124.971 179.446 120.928 173.923 120.928Z" fill="white" stroke="black" stroke-width="2.04"/>
<path d="M161.066 130.927H141.066C135.543 130.927 129.911 134.97 128.486 139.958L113.648 191.894C112.223 196.881 115.545 200.924 121.068 200.924H141.068C146.591 200.924 152.223 196.881 153.648 191.894L168.486 139.958C169.911 134.97 166.589 130.927 161.066 130.927Z" fill="#55AA55"/>
<path fill-rule="evenodd" clip-rule="evenodd" d="M35 50.999V60.999H25V70.999H35V80.999H45V70.999H55V60.999H45V50.999H35Z" fill="white"/>
<path d="M81 30.999C69.92 30.999 61 39.919 61 50.999V52.999H71V50.999C71 45.459 75.46 40.999 81 40.999C86.54 40.999 91 45.459 91 50.999C91 53.255 89.128 57.679 87.176 59.219C76.564 67.567 76.676 66.187 61 76.999V90.999H101V76.999H91V80.999H73C85.38 72.279 86.284 72.495 95.988 63.811C99.096 61.031 101 55.511 101 50.999C101 39.919 92.08 30.999 81 30.999Z" fill="white"/>
<path fill-rule="evenodd" clip-rule="evenodd" d="M207 310.999V300.999H217V290.999H207V280.999H197V290.999H187V300.999H197V310.999H207Z" fill="white"/>
<path d="M161 330.999C172.08 330.999 181 322.079 181 310.999V308.999H171V310.999C171 316.539 166.54 320.999 161 320.999C159.686 321.002 158.385 320.745 157.17 320.243C155.956 319.742 154.852 319.005 153.923 318.076C152.994 317.147 152.257 316.043 151.756 314.829C151.254 313.614 150.997 312.313 151 310.999C151 308.747 152.872 304.319 154.824 302.783C165.436 294.431 165.324 295.811 181 284.999V270.999H141V284.999H151V280.999H169C156.62 289.719 155.716 289.507 146.012 298.187C142.904 300.971 141 306.491 141 310.999C141 322.079 149.92 330.999 161 330.999Z" fill="white"/>
</svg>

