<svg width="242" height="362" viewBox="0 0 242 362" fill="none" xmlns="http://www.w3.org/2000/svg">
<path d="M201 1H41C18.9086 1 1 18.9086 1 41V321C1 343.091 18.9086 361 41 361H201C223.091 361 241 343.091 241 321V41C241 18.9086 223.091 1 201 1Z" fill="white" stroke="black" stroke-width="2"/>
<path d="M201 21H41C29.9543 21 21 29.9543 21 41V321C21 332.046 29.9543 341 41 341H201C212.046 341 221 332.046 221 321V41C221 29.9543 212.046 21 201 21Z" fill="#55AA55"/>
<path d="M181 81C92.636 81 21 152.636 21 241C21 263.092 38.908 281 61 281C149.364 281 221 209.368 221 121C221 98.908 203.092 81 181 81Z" fill="white"/>
<path d="M121 121C98.908 121 81 138.908 81 161V201C81 223.092 98.908 241 121 241C143.092 241 161 223.092 161 201C161 178.908 143.092 161 121 161C113.732 161 106.872 162.988 101 166.376V161C101 155.696 103.107 150.609 106.858 146.858C110.609 143.107 115.696 141 121 141C128.816 141 135.46 145.588 138.752 152.124L156.752 143.124C153.444 136.473 148.345 130.878 142.028 126.97C135.711 123.061 128.428 120.995 121 121.004V121ZM121 181C126.304 181 131.391 183.107 135.142 186.858C138.893 190.609 141 195.696 141 201C141 206.304 138.893 211.391 135.142 215.142C131.391 218.893 126.304 221 121 221C115.696 221 110.609 218.893 106.858 215.142C103.107 211.391 101 206.304 101 201C101 195.696 103.107 190.609 106.858 186.858C110.609 183.107 115.696 181 121 181ZM101 245V253H141V245H101Z" fill="#55AA55"/>
<path d="M51 31C45.6957 31 40.6086 33.1072 36.8579 36.8579C33.1072 40.6087 31 45.6957 31 51V71C30.9981 75.4031 32.4493 79.6837 35.1284 83.1779C37.8075 86.672 41.5649 89.1844 45.8175 90.3253C50.0702 91.4663 54.5805 91.1721 58.6488 89.4882C62.7171 87.8043 66.116 84.8249 68.3184 81.0122C70.5207 77.1995 71.4034 72.7666 70.8293 68.4011C70.2553 64.0357 68.2568 59.9817 65.1437 56.8679C62.0306 53.7542 57.9769 51.7548 53.6116 51.1798C49.2462 50.6049 44.8132 51.4865 41 53.688V51C41 48.3478 42.0536 45.8043 43.929 43.929C45.8043 42.0536 48.3478 41 51 41C54.908 41 58.232 43.2961 59.876 46.5601L68.876 42.064C67.2229 38.7375 64.6734 35.9392 61.5149 33.9843C58.3564 32.0294 54.7145 30.9957 51 31ZM51 61C53.6522 61 56.1957 62.0536 58.071 63.929C59.9464 65.8043 61 68.3478 61 71C61 73.6522 59.9464 76.1957 58.071 78.0711C56.1957 79.9464 53.6522 81 51 81C48.3478 81 45.8043 79.9464 43.929 78.0711C42.0536 76.1957 41 73.6522 41 71C41 68.3478 42.0536 65.8043 43.929 63.929C45.8043 62.0536 48.3478 61 51 61ZM191 331C196.304 331 201.391 328.893 205.142 325.142C208.893 321.391 211 316.304 211 311V291C211.002 286.597 209.551 282.316 206.872 278.822C204.192 275.328 200.435 272.816 196.182 271.675C191.93 270.534 187.42 270.828 183.351 272.512C179.283 274.196 175.884 277.175 173.682 280.988C171.479 284.8 170.597 289.233 171.171 293.599C171.745 297.964 173.743 302.018 176.856 305.132C179.969 308.246 184.023 310.245 188.388 310.82C192.754 311.395 197.187 310.514 201 308.312V311C201 313.652 199.946 316.196 198.071 318.071C196.196 319.946 193.652 321 191 321C187.092 321 183.768 318.708 182.124 315.44L173.124 319.94C174.778 323.266 177.327 326.063 180.486 328.017C183.644 329.972 187.286 331.005 191 331ZM191 301C188.348 301 185.804 299.946 183.929 298.071C182.054 296.196 181 293.652 181 291C181 288.348 182.054 285.804 183.929 283.929C185.804 282.054 188.348 281 191 281C193.652 281 196.196 282.054 198.071 283.929C199.946 285.804 201 288.348 201 291C201 293.652 199.946 296.196 198.071 298.071C196.196 299.946 193.652 301 191 301Z" fill="white"/>
</svg>
