<svg width="242" height="362" viewBox="0 0 242 362" fill="none" xmlns="http://www.w3.org/2000/svg">
<path d="M201 0.999023H41C18.9086 0.999023 1 18.9076 1 40.999V320.999C1 343.09 18.9086 360.999 41 360.999H201C223.091 360.999 241 343.09 241 320.999V40.999C241 18.9076 223.091 0.999023 201 0.999023Z" fill="white" stroke="black" stroke-width="2"/>
<path d="M201 20.999H41C29.9543 20.999 21 29.9533 21 40.999V320.999C21 332.045 29.9543 340.999 41 340.999H201C212.046 340.999 221 332.045 221 320.999V40.999C221 29.9533 212.046 20.999 201 20.999Z" fill="#FF5555"/>
<path d="M181 80.999C92.636 80.999 21 152.635 21 240.999C21 263.091 38.908 280.999 61 280.999C149.364 280.999 221 209.367 221 120.999C221 98.907 203.092 80.999 181 80.999Z" fill="white"/>
<path d="M113 120.999L93 140.999V164.999L113 144.999V240.999H133V120.999H113Z" fill="#FF5555"/>
<path d="M41 30.999L31 40.999V52.999L41 42.999V90.999H51V30.999H41ZM201 330.999L211 320.999V308.999L201 318.999V270.999H191V330.999H201Z" fill="white"/>
</svg>
