<svg width="242" height="362" viewBox="0 0 242 362" fill="none" xmlns="http://www.w3.org/2000/svg">
<path d="M201 1H41C18.9086 1 1 18.9086 1 41V321C1 343.091 18.9086 361 41 361H201C223.091 361 241 343.091 241 321V41C241 18.9086 223.091 1 201 1Z" fill="white" stroke="black" stroke-width="2"/>
<path d="M201 21H41C29.9543 21 21 29.9543 21 41V321C21 332.046 29.9543 341 41 341H201C212.046 341 221 332.046 221 321V41C221 29.9543 212.046 21 201 21Z" fill="black"/>
<path fill-rule="evenodd" clip-rule="evenodd" d="M181 81C92.636 81 21 152.636 21 241C21 263.092 38.908 281 61 281C149.364 281 221 209.368 221 121C221 98.908 203.092 81 181 81Z" fill="white"/>
<path d="M80.6001 31L61 71V81H85V91H95V81H101V71H95V51H85V71H71.3999L91 31H80.6001Z" fill="white"/>
<path fill-rule="evenodd" clip-rule="evenodd" d="M35 51V61H25V71H35V81H45V71H55V61H45V51H35Z" fill="white"/>
<path d="M161.4 331L181 291V281H157V271H147V281H141V291H147V311H157V291H170.6L151 331H161.4Z" fill="white"/>
<path fill-rule="evenodd" clip-rule="evenodd" d="M207 311V301H217V291H207V281H197V291H187V301H197V311H207Z" fill="white"/>
<path d="M123.885 130.97H83.885C78.3622 130.97 72.7299 135.013 71.305 140.001L50.7531 211.936C49.3282 216.924 52.6503 220.967 58.1731 220.967H98.1731C103.696 220.967 109.328 216.924 110.753 211.936L131.305 140.001C132.73 135.013 129.408 130.97 123.885 130.97Z" fill="white" stroke="black" stroke-width="2.04"/>
<path d="M111.028 140.97H91.0282C85.5054 140.97 79.8731 145.013 78.4482 150L63.61 201.936C62.1851 206.924 65.5072 210.967 71.03 210.967H91.03C96.5529 210.967 102.185 206.924 103.61 201.936L118.448 150C119.873 145.013 116.551 140.97 111.028 140.97Z" fill="#FF5555"/>
<path d="M163.885 100.97H123.885C118.362 100.97 112.73 105.013 111.305 110.001L90.7531 181.936C89.3282 186.924 92.6503 190.967 98.1731 190.967H138.173C143.696 190.967 149.328 186.924 150.753 181.936L171.305 110.001C172.73 105.013 169.408 100.97 163.885 100.97Z" fill="white" stroke="black" stroke-width="2.04"/>
<path d="M151.028 110.97H131.028C125.505 110.97 119.873 115.013 118.448 120L103.61 171.936C102.185 176.924 105.507 180.967 111.03 180.967H131.03C136.553 180.967 142.185 176.924 143.61 171.936L158.448 120C159.873 115.013 156.551 110.97 151.028 110.97Z" fill="#5555FF"/>
<path d="M153.885 160.97H113.885C108.362 160.97 102.73 165.013 101.305 170.001L80.7531 241.936C79.3282 246.924 82.6503 250.967 88.1731 250.967H128.173C133.696 250.967 139.328 246.924 140.753 241.936L161.305 170.001C162.73 165.013 159.408 160.97 153.885 160.97Z" fill="white" stroke="black" stroke-width="2.04"/>
<path d="M141.028 170.97H121.028C115.505 170.97 109.873 175.013 108.448 180L93.61 231.936C92.1851 236.924 95.5072 240.967 101.03 240.967H121.03C126.553 240.967 132.185 236.924 133.61 231.936L148.448 180C149.873 175.013 146.551 170.97 141.028 170.97Z" fill="#FFAA00"/>
<path d="M193.885 130.97H153.885C148.362 130.97 142.73 135.013 141.305 140.001L120.753 211.936C119.328 216.924 122.65 220.967 128.173 220.967H168.173C173.696 220.967 179.328 216.924 180.753 211.936L201.305 140.001C202.73 135.013 199.408 130.97 193.885 130.97Z" fill="white" stroke="black" stroke-width="2.04"/>
<path d="M181.028 140.97H161.028C155.505 140.97 149.873 145.013 148.448 150L133.61 201.936C132.185 206.924 135.507 210.967 141.03 210.967H161.03C166.553 210.967 172.185 206.924 173.61 201.936L188.448 150C189.873 145.013 186.551 140.97 181.028 140.97Z" fill="#55AA55"/>
</svg>
