<svg width="242" height="362" viewBox="0 0 242 362" fill="none" xmlns="http://www.w3.org/2000/svg">
<path d="M201 1H41C18.9086 1 1 18.9086 1 41V321C1 343.091 18.9086 361 41 361H201C223.091 361 241 343.091 241 321V41C241 18.9086 223.091 1 201 1Z" fill="white" stroke="black" stroke-width="2"/>
<path d="M201 21H41C29.9543 21 21 29.9543 21 41V321C21 332.046 29.9543 341 41 341H201C212.046 341 221 332.046 221 321V41C221 29.9543 212.046 21 201 21Z" fill="#FFAA00"/>
<path d="M181 81C92.636 81 21 152.636 21 241C21 263.092 38.908 281 61 281C149.364 281 221 209.368 221 121C221 98.908 203.092 81 181 81Z" fill="white"/>
<path d="M121.124 121C113.237 120.976 105.422 122.509 98.129 125.512C90.8358 128.515 84.2074 132.929 78.6241 138.5C55.1641 161.9 55.1 199.912 78.504 223.376C101.904 246.836 139.912 246.9 163.376 223.5C186.836 200.1 186.9 162.088 163.5 138.624C157.947 133.038 151.344 128.605 144.072 125.581C136.799 122.556 129.001 120.999 121.124 121ZM121.004 141C128 141.008 135.032 142.84 141.252 146.5L86.5001 201.252C77.4601 185.9 79.552 165.788 92.752 152.624C96.4599 148.917 100.865 145.982 105.713 143.987C110.562 141.992 115.757 140.977 121 141H121.004ZM155.5 160.624C160.013 168.292 161.849 177.243 160.718 186.069C159.587 194.895 155.553 203.094 149.252 209.376C136.04 222.552 115.96 224.488 100.624 215.376L155.504 160.624H155.5Z" fill="#FFAA00"/>
<path d="M61.0639 31C57.1206 30.9871 53.2136 31.7532 49.5673 33.2544C45.9209 34.7557 42.6069 36.9625 39.8158 39.7481C35.6128 43.9377 32.7467 49.2795 31.5797 55.0981C30.4128 60.9167 30.9974 66.9507 33.2599 72.4369C35.5224 77.9232 39.3612 82.6154 44.2904 85.92C49.2197 89.2245 55.0181 90.993 60.9525 91.002C66.887 91.0109 72.6911 89.2599 77.6303 85.9703C82.5695 82.6806 86.422 78 88.7011 72.5205C90.9801 67.0411 91.5831 61.009 90.4337 55.1869C89.2844 49.3648 86.4342 44.0143 82.2438 39.8121C79.4685 37.0197 76.1687 34.8036 72.5338 33.2913C68.899 31.779 65.0008 31.0003 61.0639 31ZM60.9999 41C64.4999 41 68.016 41.9201 71.12 43.7481L43.7519 71.12C41.5067 67.2945 40.5954 62.8318 41.1608 58.4323C41.7262 54.0328 43.7364 49.9455 46.8759 46.8121C48.7297 44.9586 50.9324 43.4906 53.3566 42.4931C55.7808 41.4955 58.3785 40.9881 60.9999 41ZM78.248 50.8121C80.5036 54.6458 81.4207 59.1206 80.8551 63.5325C80.2896 67.9445 78.2736 72.0431 75.1239 75.184C71.9806 78.3124 67.8852 80.3053 63.4838 80.8485C59.0824 81.3918 54.6254 80.4543 50.8158 78.184L78.248 50.8121ZM181.064 271C177.121 270.987 173.214 271.753 169.567 273.254C165.921 274.756 162.607 276.963 159.816 279.748C155.613 283.938 152.747 289.279 151.58 295.098C150.413 300.917 150.997 306.951 153.26 312.437C155.522 317.923 159.361 322.615 164.29 325.92C169.22 329.225 175.018 330.993 180.953 331.002C186.887 331.011 192.691 329.26 197.63 325.97C202.57 322.681 206.422 318 208.701 312.521C210.98 307.041 211.583 301.009 210.434 295.187C209.284 289.365 206.434 284.014 202.244 279.812C199.469 277.02 196.169 274.804 192.534 273.291C188.899 271.779 185.001 271 181.064 271ZM181 281C184.5 281 188.016 281.92 191.12 283.748L163.752 311.12C161.507 307.294 160.595 302.832 161.161 298.432C161.726 294.033 163.736 289.946 166.876 286.812C168.73 284.959 170.932 283.491 173.357 282.493C175.781 281.496 178.379 280.988 181 281ZM198.248 290.812C200.504 294.646 201.421 299.121 200.855 303.533C200.29 307.944 198.274 312.043 195.124 315.184C191.981 318.312 187.885 320.305 183.484 320.849C179.082 321.392 174.625 320.454 170.816 318.184L198.248 290.812Z" fill="white"/>
</svg>
