<svg width="242" height="362" viewBox="0 0 242 362" fill="none" xmlns="http://www.w3.org/2000/svg">
<path d="M201 1H41C18.9086 1 1 18.9086 1 41V321C1 343.091 18.9086 361 41 361H201C223.091 361 241 343.091 241 321V41C241 18.9086 223.091 1 201 1Z" fill="white" stroke="black" stroke-width="2"/>
<path d="M201 21H41C29.9543 21 21 29.9543 21 41V321C21 332.046 29.9543 341 41 341H201C212.046 341 221 332.046 221 321V41C221 29.9543 212.046 21 201 21Z" fill="#FFAA00"/>
<path fill-rule="evenodd" clip-rule="evenodd" d="M181 81C92.636 81 21 152.636 21 241C21 263.092 38.908 281 61 281C149.364 281 221 209.368 221 121C221 98.908 203.092 81 181 81Z" fill="white"/>
<path d="M121 121C113.044 121 105.413 124.161 99.7868 129.787C94.1607 135.413 91 143.044 91 151H111C111 149.022 111.586 147.089 112.685 145.444C113.784 143.8 115.346 142.518 117.173 141.761C119 141.004 121.011 140.806 122.951 141.192C124.891 141.578 126.673 142.53 128.071 143.929C129.47 145.327 130.422 147.109 130.808 149.049C131.194 150.989 130.996 153 130.239 154.827C129.482 156.654 128.2 158.216 126.556 159.315C124.911 160.414 122.978 161 121 161H109V181H121C132.08 181 141 189.92 141 201C141 212.08 132.08 221 121 221C109.92 221 101 212.08 101 201H81C81 223.16 98.84 241 121 241C143.16 241 161 223.16 161 201C161 187.824 154.648 176.28 144.876 169C148.839 163.835 150.991 157.51 151 151C151 143.044 147.839 135.413 142.213 129.787C136.587 124.161 128.956 121 121 121Z" fill="#FFAA00"/>
<path d="M51 31C47.0218 31 43.2064 32.5804 40.3934 35.3934C37.5803 38.2065 36 42.0218 36 46H46C46 45.0111 46.2932 44.0444 46.8427 43.2222C47.3921 42.3999 48.173 41.7591 49.0866 41.3806C50.0002 41.0022 51.0056 40.9031 51.9755 41.0961C52.9454 41.289 53.8363 41.7652 54.5355 42.4645C55.2348 43.1637 55.711 44.0546 55.9039 45.0245C56.0969 45.9944 55.9978 46.9998 55.6194 47.9135C55.2409 48.8271 54.6001 49.6079 53.7778 50.1573C52.9556 50.7068 51.9889 51 51 51H45V61H51C56.54 61 61 65.46 61 71C61 76.54 56.54 81 51 81C49.686 81.0026 48.3845 80.7458 47.17 80.2441C45.9556 79.7425 44.8521 79.006 43.923 78.0769C42.9939 77.1478 42.2575 76.0444 41.7559 74.83C41.2542 73.6155 40.9974 72.314 41 71H31C31 82.08 39.92 91 51 91C62.08 91 71 82.08 71 71C71 64.412 67.824 58.64 62.936 55C64.84 52.484 66 49.4 66 46C66 42.0218 64.4197 38.2065 61.6066 35.3934C58.7936 32.5804 54.9782 31 51 31ZM191 331C194.978 331 198.794 329.42 201.607 326.607C204.42 323.794 206 319.978 206 316H196C196 316.989 195.707 317.956 195.157 318.778C194.608 319.6 193.827 320.241 192.913 320.619C192 320.998 190.994 321.097 190.025 320.904C189.055 320.711 188.164 320.235 187.464 319.536C186.765 318.836 186.289 317.945 186.096 316.975C185.903 316.006 186.002 315 186.381 314.087C186.759 313.173 187.4 312.392 188.222 311.843C189.044 311.293 190.011 311 191 311H197V301H191C189.686 301.003 188.384 300.746 187.17 300.244C185.956 299.743 184.852 299.006 183.923 298.077C182.994 297.148 182.257 296.044 181.756 294.83C181.254 293.616 180.997 292.314 181 291C181 285.46 185.46 281 191 281C196.54 281 201 285.46 201 291H211C211 279.92 202.08 271 191 271C179.92 271 171 279.92 171 291C171 297.588 174.176 303.36 179.064 307C177.082 309.582 176.006 312.745 176 316C176 319.978 177.58 323.794 180.393 326.607C183.206 329.42 187.022 331 191 331Z" fill="white"/>
</svg>
