<svg xmlns="http://www.w3.org/2000/svg"  viewBox="0 0 50 50" width="50px" height="50px">
<path d="M 30.251953 9.046875 C 26.619531 9.1945313 22.669531 10.139453 18.800781 11.939453 C 14.070781 14.139453 10.250938 17.240625 7.7109375 20.640625 C 7.7309375 20.650625 7.7592969 20.659922 7.7792969 20.669922 C 8.0192969 20.779922 8.2107813 20.980469 8.3007812 21.230469 L 11.609375 30.199219 C 11.979375 31.179219 12.510703 31.709531 13.220703 31.769531 C 13.190703 31.499531 13.119766 31.200625 13.009766 30.890625 L 9.6992188 21.929688 C 9.5592187 21.559687 9.6496875 21.149141 9.9296875 20.869141 C 11.899688 18.909141 11.900937 18.909375 11.960938 18.859375 C 12.040938 18.799375 12.130469 18.750703 12.230469 18.720703 C 13.780469 18.140703 16.129844 17.269453 16.339844 17.189453 C 16.349844 17.189453 16.370859 17.179687 16.380859 17.179688 L 20.039062 15.849609 C 20.149062 15.809609 20.260859 15.789062 20.380859 15.789062 C 20.570859 15.789062 20.759688 15.839219 20.929688 15.949219 L 23.740234 17.810547 L 23.400391 16.869141 C 23.260391 16.499141 23.350859 16.090547 23.630859 15.810547 L 25.560547 13.890625 C 25.660547 13.790625 25.779922 13.710156 25.919922 13.660156 L 30.050781 12.130859 C 30.170781 12.090859 30.280391 12.070312 30.400391 12.070312 C 30.800391 12.070312 31.190078 12.320703 31.330078 12.720703 L 31.650391 13.560547 C 32.650391 12.290547 33.949844 11.100937 35.339844 10.210938 C 35.379844 10.180938 35.409922 10.160156 35.419922 10.160156 C 35.609922 10.040156 35.819531 9.9205469 36.019531 9.8105469 L 36.089844 9.7695312 C 36.159844 9.7295313 36.230547 9.6903906 36.310547 9.6503906 C 36.330547 9.6403906 36.339375 9.6308594 36.359375 9.6308594 C 34.495625 9.1583594 32.431406 8.9582812 30.251953 9.046875 z M 40.449219 9.6503906 C 39.619219 9.6503906 38.760625 9.7898437 37.890625 10.089844 C 37.800625 10.109844 37.709141 10.139922 37.619141 10.169922 C 37.319141 10.279922 37.03 10.410781 36.75 10.550781 C 36.67 10.590781 36.58 10.639453 36.5 10.689453 C 36.32 10.789453 36.130938 10.89 35.960938 11 C 35.940937 11.02 35.910625 11.029063 35.890625 11.039062 C 33.810625 12.379062 32.200625 14.249766 31.390625 15.759766 L 30.400391 13.070312 L 26.259766 14.599609 L 24.330078 16.519531 L 25.730469 20.310547 L 20.380859 16.789062 L 16.720703 18.119141 C 16.710703 18.119141 12.570313 19.650391 12.570312 19.650391 C 12.560313 19.660391 10.630859 21.580078 10.630859 21.580078 L 13.949219 30.550781 C 14.149219 31.100781 14.270469 31.69 14.230469 32.25 C 14.160469 32.58 13.910625 32.700234 13.640625 32.740234 C 13.520625 32.760234 13.399297 32.769531 13.279297 32.769531 L 13.220703 32.769531 C 11.900703 32.709531 11.099688 31.700781 10.679688 30.550781 L 7.359375 21.580078 L 6.9296875 21.740234 L 3.1992188 23.119141 L 1.2695312 25.039062 L 4.5097656 33.820312 C 5.7097656 37.070312 7.8203125 39.139219 10.820312 39.199219 C 10.870313 39.209219 10.930469 39.210938 10.980469 39.210938 C 11.100469 39.210938 11.229609 39.209219 11.349609 39.199219 C 13.479609 39.089219 15.760234 38.159844 17.240234 36.589844 C 17.900234 35.939844 18.619688 35.280391 19.179688 34.650391 C 19.189688 34.640391 19.200938 34.619375 19.210938 34.609375 C 19.330938 34.469375 19.450781 34.340937 19.550781 34.210938 C 19.570781 34.180937 19.589141 34.149141 19.619141 34.119141 C 19.709141 33.999141 19.789375 33.879766 19.859375 33.759766 L 20.660156 35.929688 L 24.830078 34.390625 L 26.769531 32.480469 C 26.759531 32.470469 25.33 28.579844 25.25 28.339844 L 30.929688 32.140625 L 34.359375 30.890625 L 36.289062 28.960938 C 36.279063 28.960938 36.060547 28.359375 36.060547 28.359375 C 36.970547 28.719375 37.950703 28.910156 38.970703 28.910156 C 39.920703 28.910156 40.910391 28.740859 41.900391 28.380859 C 42.090391 28.310859 42.270938 28.240391 42.460938 28.150391 C 44.160938 27.410391 45.899375 26.100312 47.609375 23.320312 C 47.699375 23.170313 47.779844 23.040391 47.839844 22.900391 C 47.849844 22.870391 47.860859 22.850312 47.880859 22.820312 C 47.980859 22.630312 48.070156 22.440234 48.160156 22.240234 L 48.25 22.029297 C 48.36 21.759297 48.459063 21.490938 48.539062 21.210938 C 48.559063 21.150938 48.570078 21.099063 48.580078 21.039062 C 48.640078 20.809062 48.700234 20.579609 48.740234 20.349609 C 48.760234 20.249609 48.769297 20.150781 48.779297 20.050781 C 48.809297 19.860781 48.829609 19.660703 48.849609 19.470703 C 48.859609 19.360703 48.859141 19.240859 48.869141 19.130859 C 48.869141 18.940859 48.879141 18.750312 48.869141 18.570312 C 48.869141 18.450312 48.869375 18.330937 48.859375 18.210938 C 48.849375 18.020937 48.830547 17.830625 48.810547 17.640625 C 48.790547 17.530625 48.779766 17.410781 48.759766 17.300781 C 48.729766 17.090781 48.690625 16.889688 48.640625 16.679688 C 48.620625 16.579687 48.600312 16.480625 48.570312 16.390625 C 48.490313 16.080625 48.399063 15.780469 48.289062 15.480469 C 46.999062 12.000469 43.929219 9.6503906 40.449219 9.6503906 z M 40.449219 10.810547 C 43.409219 10.810547 46.059219 12.800625 47.199219 15.890625 C 48.549219 19.530625 47.28 23.210156 44.25 24.910156 L 44.240234 24.910156 C 43.920234 25.090156 43.580469 25.239141 43.230469 25.369141 C 42.430469 25.659141 41.620547 25.810547 40.810547 25.810547 C 37.840547 25.810547 35.180781 23.820234 34.050781 20.740234 C 33.350781 18.840234 33.339062 16.829844 34.039062 15.089844 C 34.749063 13.299844 36.159531 11.939766 38.019531 11.259766 C 38.559531 11.059766 39.119922 10.919375 39.669922 10.859375 C 39.929922 10.829375 40.189219 10.810547 40.449219 10.810547 z M 40.390625 12.800781 C 39.830625 12.800781 39.269219 12.899375 38.699219 13.109375 C 37.309219 13.629375 36.340391 14.610938 35.900391 15.960938 C 35.520391 17.140937 35.580078 18.540391 36.080078 19.900391 C 36.940078 22.220391 38.750781 23.660156 40.800781 23.660156 C 41.350781 23.660156 41.920234 23.559609 42.490234 23.349609 C 43.950234 22.809609 44.930078 21.719844 45.330078 20.339844 L 45.330078 20.330078 C 45.660078 19.220078 45.599609 17.910312 45.099609 16.570312 C 44.739609 15.580312 44.200547 14.760625 43.560547 14.140625 C 42.670547 13.280625 41.570625 12.800781 40.390625 12.800781 z M 29.710938 14.560547 L 34.800781 28.279297 L 33.019531 28.929688 L 21.359375 21.130859 L 25.279297 31.779297 L 23.279297 32.519531 L 18.210938 18.810547 L 20.230469 18.080078 L 31.519531 25.509766 L 27.75 15.279297 L 29.710938 14.560547 z M 38.460938 15.900391 C 38.750937 15.900391 39.050859 15.939297 39.380859 16.029297 C 40.630859 16.369297 41.579844 17.530391 42.089844 18.900391 C 42.189844 19.180391 42.270078 19.460234 42.330078 19.740234 C 42.560078 20.860234 42.450469 21.630312 41.980469 22.070312 C 41.700469 22.330313 41.290547 22.470703 40.810547 22.470703 C 40.390547 22.470703 39.910391 22.360156 39.400391 22.160156 C 39.320391 22.120156 39.249922 22.090781 39.169922 22.050781 C 39.039922 21.970781 38.920781 21.879297 38.800781 21.779297 C 38.710781 21.719297 38.619062 21.660078 38.539062 21.580078 C 38.419063 21.470078 38.309219 21.350703 38.199219 21.220703 C 38.129219 21.150703 38.050234 21.070234 37.990234 20.990234 C 37.870234 20.840234 37.769688 20.679766 37.679688 20.509766 C 37.629688 20.439766 37.569297 20.359297 37.529297 20.279297 C 37.389297 20.029297 37.269922 19.770234 37.169922 19.490234 C 37.079922 19.260234 37.010938 19.009531 36.960938 18.769531 C 36.940937 18.699531 36.930156 18.620781 36.910156 18.550781 C 36.880156 18.380781 36.859844 18.199297 36.839844 18.029297 C 36.829844 17.949297 36.830312 17.869063 36.820312 17.789062 C 36.810313 17.609063 36.820078 17.43 36.830078 17.25 C 36.840078 17.19 36.829844 17.140078 36.839844 17.080078 L 36.869141 16.960938 C 37.089141 16.240938 37.680937 15.900391 38.460938 15.900391 z M 38.460938 16.900391 C 37.940937 16.900391 37.870078 17.120469 37.830078 17.230469 L 37.830078 17.339844 C 37.820078 17.459844 37.810313 17.590937 37.820312 17.710938 C 37.820312 17.760937 37.830078 17.799609 37.830078 17.849609 L 37.830078 17.910156 L 37.839844 17.960938 C 37.849844 18.090937 37.870625 18.219844 37.890625 18.339844 C 37.900625 18.379844 37.909922 18.430234 37.919922 18.490234 L 37.929688 18.529297 L 37.939453 18.570312 C 37.979453 18.770312 38.039375 18.960391 38.109375 19.150391 C 38.189375 19.370391 38.289922 19.580313 38.419922 19.820312 C 38.429922 19.850313 38.460234 19.869688 38.490234 19.929688 L 38.529297 19.980469 L 38.560547 20.039062 C 38.630547 20.169063 38.699062 20.280625 38.789062 20.390625 C 38.819063 20.430625 38.870156 20.469766 38.910156 20.509766 L 38.939453 20.539062 L 38.960938 20.570312 C 39.050938 20.670312 39.13 20.759141 39.25 20.869141 C 39.28 20.899141 39.319609 20.919219 39.349609 20.949219 L 39.400391 20.980469 L 39.439453 21.009766 C 39.509453 21.069766 39.580156 21.119922 39.660156 21.169922 L 39.710938 21.199219 L 39.800781 21.240234 C 40.170781 21.390234 40.520547 21.470703 40.810547 21.470703 C 41.030547 21.470703 41.210781 21.419844 41.300781 21.339844 C 41.430781 21.209844 41.519609 20.779219 41.349609 19.949219 C 41.299609 19.709219 41.230391 19.47 41.150391 19.25 C 40.710391 18.06 39.949141 17.22 39.119141 17 C 38.879141 16.93 38.660938 16.900391 38.460938 16.900391 z M 16.039062 19.609375 L 18.919922 27.410156 C 20.379922 31.350156 19.390391 33.990703 15.900391 35.470703 L 15.580078 35.599609 L 15.259766 35.720703 L 15.099609 35.769531 C 14.329609 36.009531 13.590156 36.130859 12.910156 36.130859 C 10.470156 36.130859 8.6595313 34.570234 7.5195312 31.490234 L 5.1699219 25.119141 L 4.6796875 23.800781 L 6 23.320312 L 6.6796875 23.070312 L 9.5898438 30.949219 C 10.269844 32.799219 11.539922 33.859688 13.169922 33.929688 L 13.339844 33.929688 C 13.819844 33.929688 14.299297 33.839922 14.779297 33.669922 C 15.319297 33.469922 15.799219 33.180781 16.199219 32.800781 C 17.369219 31.690781 17.640937 30.070469 16.960938 28.230469 L 14.050781 20.349609 L 16.039062 19.609375 z M 41.419922 29.570312 C 40.609922 29.800312 39.790703 29.910156 38.970703 29.910156 C 38.300703 29.910156 37.630469 29.839453 36.980469 29.689453 L 35.060547 31.599609 C 34.960547 31.699609 34.839219 31.780078 34.699219 31.830078 L 31.269531 33.080078 C 31.159531 33.120078 31.039687 33.140625 30.929688 33.140625 C 30.729688 33.140625 30.539141 33.080703 30.369141 32.970703 L 27.240234 30.880859 C 27.470234 31.490859 27.649453 31.960313 27.689453 32.070312 C 27.719453 32.150312 27.739766 32.220781 27.759766 32.300781 C 27.819766 32.630781 27.710469 32.959453 27.480469 33.189453 L 25.539062 35.099609 C 25.429063 35.199609 25.309687 35.280078 25.179688 35.330078 L 21.009766 36.869141 C 20.889766 36.909141 20.780156 36.929688 20.660156 36.929688 C 20.250156 36.929688 19.870703 36.679297 19.720703 36.279297 L 19.519531 35.740234 C 19.179531 36.100234 18.820937 36.449062 18.460938 36.789062 C 18.280938 36.959062 18.110703 37.129531 17.970703 37.269531 C 16.730703 38.589531 14.980313 39.550703 13.070312 39.970703 C 18.060312 41.280703 24.519531 40.599453 30.769531 37.689453 C 35.219531 35.619453 38.879922 32.740313 41.419922 29.570312 z"/></svg>