<svg xmlns="http://www.w3.org/2000/svg"  viewBox="0 0 100 100" width="100px" height="100px"><path d="M 30.654297 17.921875 C 23.486297 17.921875 17.654297 23.753875 17.654297 30.921875 L 17.654297 69.921875 C 17.654297 77.089875 23.486297 82.921875 30.654297 82.921875 L 69.654297 82.921875 C 76.822297 82.921875 82.654297 77.089875 82.654297 69.921875 L 82.654297 30.921875 C 82.654297 23.753875 76.822297 17.921875 69.654297 17.921875 L 30.654297 17.921875 z M 30.654297 19.921875 L 69.654297 19.921875 C 75.719297 19.921875 80.654297 24.856875 80.654297 30.921875 L 80.654297 69.921875 C 80.654297 75.986875 75.719297 80.921875 69.654297 80.921875 L 30.654297 80.921875 C 24.589297 80.921875 19.654297 75.986875 19.654297 69.921875 L 19.654297 30.921875 C 19.654297 24.856875 24.589297 19.921875 30.654297 19.921875 z M 33.490234 22.921875 C 27.514234 22.921875 22.652344 27.781813 22.652344 33.757812 L 22.652344 67.083984 C 22.652344 73.059984 27.514234 77.921875 33.490234 77.921875 L 66.816406 77.921875 C 72.792406 77.921875 77.652344 73.059984 77.652344 67.083984 L 77.652344 48.421875 C 77.653344 48.145875 77.430297 47.921875 77.154297 47.921875 C 76.878297 47.921875 76.654297 48.145875 76.654297 48.421875 L 76.654297 67.083984 C 76.654297 72.507984 72.240406 76.921875 66.816406 76.921875 L 33.490234 76.921875 C 28.066234 76.921875 23.652344 72.507984 23.652344 67.083984 L 23.652344 33.757812 C 23.652344 28.333813 28.066234 23.921875 33.490234 23.921875 L 67.152344 23.921875 C 67.428344 23.921875 67.652344 23.697875 67.652344 23.421875 C 67.652344 23.145875 67.428344 22.921875 67.152344 22.921875 L 33.490234 22.921875 z M 64.751953 35.933594 C 63.934628 35.964625 63.098 36.127187 62.257812 36.4375 C 61.960813 36.5475 61.676297 36.672594 61.404297 36.808594 C 61.317297 36.851594 61.238297 36.901266 61.154297 36.947266 C 60.974297 37.045266 60.795953 37.146859 60.626953 37.255859 C 60.603953 37.270859 60.579641 37.281875 60.556641 37.296875 L 60.554688 37.296875 C 58.507688 38.609875 56.924813 40.447641 56.132812 41.931641 L 55.152344 39.289062 L 51.085938 40.792969 L 49.189453 42.681641 L 50.564453 46.414062 L 45.298828 42.945312 L 41.701172 44.251953 L 41.693359 44.259766 L 37.619141 45.763672 L 37.617188 45.763672 L 37.615234 45.765625 L 37.609375 45.767578 L 37.611328 45.771484 L 35.714844 47.658203 L 38.970703 56.478516 C 39.171703 57.023516 39.290953 57.600391 39.251953 58.150391 C 39.181953 58.478391 38.935828 58.595672 38.673828 58.638672 C 38.536828 58.653672 38.397766 58.670063 38.259766 58.664062 C 36.962766 58.606063 36.175859 57.614563 35.755859 56.476562 L 32.498047 47.65625 L 28.398438 49.169922 L 26.5 51.060547 L 29.6875 59.695312 C 30.9375 63.081313 33.189969 65.159234 36.417969 64.990234 C 38.508969 64.880234 40.754031 63.970922 42.207031 62.419922 L 42.210938 62.416016 C 42.856938 61.783016 43.566188 61.130672 44.117188 60.513672 C 44.130187 60.499672 44.142297 60.486656 44.154297 60.472656 C 44.272297 60.338656 44.380469 60.206172 44.480469 60.076172 C 44.502469 60.047172 44.526828 60.019234 44.548828 59.990234 C 44.637828 59.870234 44.719109 59.753672 44.787109 59.638672 L 45.576172 61.775391 L 49.679688 60.259766 L 51.589844 58.376953 L 51.5625 58.375 L 51.576172 58.369141 L 50.080078 54.300781 L 55.675781 58.044922 L 59.048828 56.814453 L 60.953125 54.921875 L 60.943359 54.923828 L 60.722656 54.326172 C 62.457656 55.010172 64.447844 55.08875 66.464844 54.34375 C 68.314844 53.66075 70.216938 52.404188 72.085938 49.367188 C 72.172938 49.226188 72.245641 49.090031 72.306641 48.957031 C 72.321641 48.930031 72.332656 48.903953 72.347656 48.876953 C 72.447656 48.692953 72.536094 48.502547 72.621094 48.310547 C 72.652094 48.241547 72.687797 48.173516 72.716797 48.103516 C 72.824797 47.838516 72.918047 47.568969 72.998047 47.292969 C 73.014047 47.237969 73.025062 47.181953 73.039062 47.126953 C 73.099063 46.903953 73.151359 46.680172 73.193359 46.451172 C 73.211359 46.352172 73.222328 46.250391 73.236328 46.150391 C 73.263328 45.962391 73.287734 45.774984 73.302734 45.583984 C 73.311734 45.470984 73.316313 45.357141 73.320312 45.244141 C 73.327313 45.061141 73.329219 44.879312 73.324219 44.695312 C 73.325219 44.578312 73.321453 44.462703 73.314453 44.345703 C 73.303453 44.159703 73.284719 43.972156 73.261719 43.785156 C 73.247719 43.671156 73.235797 43.559313 73.216797 43.445312 C 73.183797 43.243313 73.141703 43.041844 73.095703 42.839844 C 73.073703 42.742844 73.054297 42.647781 73.029297 42.550781 C 72.951297 42.253781 72.862906 41.956109 72.753906 41.662109 C 71.452281 38.136672 68.293695 35.799125 64.751953 35.933594 z M 77.154297 36.921875 C 76.878297 36.921875 76.654297 37.145875 76.654297 37.421875 L 76.654297 39.421875 C 76.654297 39.697875 76.878297 39.921875 77.154297 39.921875 C 77.430297 39.921875 77.654297 39.697875 77.654297 39.421875 L 77.654297 37.421875 C 77.654297 37.145875 77.430297 36.921875 77.154297 36.921875 z M 65.041016 37.068359 C 67.957016 37.068359 70.562594 39.026594 71.683594 42.058594 C 73.143594 46.014594 71.464391 50.025719 67.775391 51.386719 C 66.993391 51.675719 66.193438 51.822266 65.398438 51.822266 C 62.473438 51.822266 59.862141 49.864938 58.744141 46.835938 C 58.053141 44.962938 58.048422 42.987437 58.732422 41.273438 C 59.433422 39.518437 60.825391 38.181813 62.650391 37.507812 C 63.438391 37.216813 64.243016 37.068359 65.041016 37.068359 z M 64.978516 39.021484 C 64.433516 39.021484 63.877219 39.124125 63.324219 39.328125 C 61.952219 39.835125 60.999359 40.803953 60.568359 42.126953 C 60.190359 43.290953 60.253094 44.665953 60.746094 46.001953 C 61.590094 48.287953 63.366859 49.707031 65.380859 49.707031 C 65.927859 49.707031 66.485969 49.603438 67.042969 49.398438 C 69.649969 48.435437 70.706328 45.692516 69.611328 42.728516 C 68.767328 40.440516 66.991516 39.021484 64.978516 39.021484 z M 54.478516 40.753906 L 59.478516 54.244141 L 57.728516 54.884766 L 46.261719 47.212891 L 50.115234 57.693359 L 48.148438 58.419922 L 43.167969 44.931641 L 45.148438 44.212891 L 56.253906 51.525391 L 52.548828 41.466797 L 54.478516 40.753906 z M 77.154297 40.921875 C 76.878297 40.921875 76.654297 41.145875 76.654297 41.421875 L 76.654297 45.421875 C 76.654297 45.697875 76.878297 45.921875 77.154297 45.921875 C 77.430297 45.921875 77.654297 45.697875 77.654297 45.421875 L 77.654297 41.421875 C 77.654297 41.145875 77.430297 40.921875 77.154297 40.921875 z M 63.132812 42.068359 C 63.398187 42.073328 63.684531 42.117219 63.988281 42.199219 C 65.219281 42.531219 66.154344 43.671484 66.652344 45.021484 C 66.753344 45.293484 66.831672 45.570656 66.888672 45.847656 C 67.117672 46.952656 67.011828 47.711672 66.548828 48.138672 C 66.027828 48.619672 65.085813 48.659562 64.007812 48.226562 C 63.933813 48.190562 63.856156 48.158187 63.785156 48.117188 C 63.656156 48.042187 63.535063 47.951375 63.414062 47.859375 C 63.329062 47.794375 63.241156 47.735109 63.160156 47.662109 C 63.041156 47.555109 62.932219 47.431594 62.824219 47.308594 C 62.756219 47.230594 62.683141 47.160172 62.619141 47.076172 C 62.507141 46.931172 62.4095 46.771328 62.3125 46.611328 C 62.2655 46.534328 62.210969 46.462812 62.167969 46.382812 C 62.033969 46.135813 61.914453 45.876469 61.814453 45.605469 C 61.727453 45.371469 61.661469 45.134484 61.605469 44.896484 C 61.588469 44.823484 61.5765 44.750734 61.5625 44.677734 C 61.5305 44.508734 61.506234 44.339875 61.490234 44.171875 C 61.483234 44.092875 61.475656 44.014547 61.472656 43.935547 C 61.464656 43.754547 61.469422 43.575437 61.482422 43.398438 C 61.486422 43.344437 61.484234 43.288375 61.490234 43.234375 C 61.495234 43.193375 61.509625 43.156234 61.515625 43.115234 C 61.741375 42.390734 62.336688 42.053453 63.132812 42.068359 z M 41.033203 45.720703 L 43.867188 53.392578 C 45.300187 57.273578 44.329437 59.865406 40.898438 61.316406 L 40.576172 61.449219 L 40.263672 61.564453 L 40.101562 61.611328 C 39.344563 61.848328 38.622078 61.96875 37.955078 61.96875 C 35.554078 61.96875 33.771297 60.435156 32.654297 57.410156 L 29.859375 49.845703 L 31.820312 49.121094 L 34.683594 56.873047 C 35.354594 58.691047 36.605078 59.733641 38.205078 59.806641 L 38.373047 59.808594 C 38.847047 59.808594 39.323016 59.721828 39.791016 59.548828 C 40.324016 59.351828 40.792594 59.066266 41.183594 58.697266 C 42.336594 57.605266 42.602594 56.007313 41.933594 54.195312 L 39.072266 46.443359 L 41.033203 45.720703 z"/></svg>