<?xml version="1.0" standalone="no"?>
<!DOCTYPE svg PUBLIC "-//W3C//DTD SVG 20010904//EN"
 "http://www.w3.org/TR/2001/REC-SVG-20010904/DTD/svg10.dtd">
<svg version="1.0" xmlns="http://www.w3.org/2000/svg"
 width="84.000000pt" height="133.000000pt" viewBox="0 0 84.000000 133.000000"
 preserveAspectRatio="xMidYMid meet">

<g transform="translate(0.000000,133.000000) scale(0.100000,-0.100000)"
fill="#000000" stroke="none">
<path d="M75 1245 l-25 -24 0 -272 c0 -213 3 -270 13 -266 6 3 29 12 49 21 36
15 38 15 48 -5 7 -11 18 -42 25 -67 16 -53 44 -98 45 -71 0 8 -11 44 -25 80
l-26 64 29 26 c41 37 133 65 162 49 12 -6 22 -10 23 -8 27 52 88 89 118 70 15
-9 21 -8 31 6 53 75 183 71 231 -7 16 -25 16 -15 17 177 0 202 0 203 -25 227
l-24 25 -321 0 -321 0 -24 -25z"/>
<path d="M643 883 c9 -2 25 -2 35 0 9 3 1 5 -18 5 -19 0 -27 -2 -17 -5z"/>
<path d="M547 832 l-37 -37 35 -94 c19 -52 35 -97 35 -102 0 -4 -9 -10 -20
-14 -13 -4 -42 9 -94 44 -41 28 -77 51 -80 51 -3 0 4 -22 16 -50 11 -27 24
-47 29 -44 5 3 25 -6 45 -20 31 -21 41 -23 66 -14 16 6 34 18 41 28 8 13 19
17 42 13 40 -6 82 15 123 62 35 39 46 70 39 106 -3 18 -5 16 -6 -9 -3 -77 -61
-129 -133 -119 -46 6 -75 29 -94 74 -20 48 -17 86 11 127 13 20 23 36 22 36
-2 0 -20 -17 -40 -38z"/>
<path d="M496 827 c3 -10 9 -15 12 -12 3 3 0 11 -7 18 -10 9 -11 8 -5 -6z"/>
<path d="M761 820 c14 -31 19 -36 19 -24 0 6 -7 19 -16 30 -14 18 -14 18 -3
-6z"/>
<path d="M618 818 c-9 -7 -19 -24 -22 -38 -6 -21 -5 -22 4 -7 15 24 56 21 74
-5 23 -33 20 -67 -6 -78 -16 -6 -18 -9 -7 -9 9 -1 28 8 42 19 47 37 17 130
-43 130 -14 0 -33 -6 -42 -12z"/>
<path d="M426 801 c-14 -15 -15 -23 -6 -47 6 -16 12 -31 12 -34 1 -5 59 -50
64 -50 2 0 -8 30 -22 66 -13 36 -22 70 -19 75 11 17 -12 9 -29 -10z"/>
<path d="M620 756 c0 -27 38 -62 53 -47 13 13 -14 65 -36 69 -12 3 -17 -3 -17
-22z"/>
<path d="M288 754 c-4 -3 6 -36 22 -74 37 -89 44 -124 30 -149 -7 -14 -7 -21
0 -21 5 0 10 -7 10 -14 0 -12 6 -13 33 -4 42 14 57 27 57 47 0 10 -3 12 -8 5
-4 -6 -16 -14 -27 -18 -18 -5 -25 7 -63 114 -24 66 -45 120 -46 120 -2 0 -5
-3 -8 -6z"/>
<path d="M215 720 c-18 -19 -17 -22 8 -88 15 -37 27 -76 27 -85 0 -31 -33 -15
-57 28 -27 47 -30 41 -6 -10 22 -45 56 -56 86 -27 l21 21 -31 91 c-30 88 -31
89 -48 70z"/>
<path d="M610 716 c0 -2 8 -10 18 -17 15 -13 16 -12 3 4 -13 16 -21 21 -21 13z"/>
<path d="M82 674 c-28 -19 -28 -30 4 -120 48 -134 121 -159 218 -77 17 14 27
24 21 22 -5 -3 -26 -12 -45 -21 -72 -33 -112 -5 -158 112 -28 68 -29 76 -14
88 23 18 1 15 -26 -4z"/>
<path d="M756 644 c-35 -42 -77 -65 -119 -66 -18 -1 -45 -11 -60 -24 -29 -24
-81 -32 -92 -14 -10 16 -19 12 -30 -12 -13 -30 -73 -59 -107 -53 -16 2 -31 -1
-35 -8 -17 -27 -59 -47 -100 -47 -78 0 -91 12 -151 150 -9 19 -11 -36 -9 -223
2 -248 2 -249 26 -268 22 -18 43 -19 343 -19 l319 0 24 25 25 24 0 286 c0 157
-1 285 -2 284 -2 0 -16 -16 -32 -35z m-58 -539 c3 -3 -7 -5 -21 -5 -15 0 -27
4 -27 9 0 10 38 7 48 -4z m52 3 c0 -4 -7 -8 -15 -8 -8 0 -15 4 -15 8 0 5 7 9
15 9 8 0 15 -4 15 -9z"/>
</g>
</svg>
